<?xml version="1.0" standalone="no"?>
<!DOCTYPE svg PUBLIC "-//W3C//DTD SVG 20010904//EN"
 "http://www.w3.org/TR/2001/REC-SVG-20010904/DTD/svg10.dtd">
<svg version="1.0" xmlns="http://www.w3.org/2000/svg"
 width="204.000000pt" height="271.000000pt" viewBox="0 0 204.000000 271.000000"
 preserveAspectRatio="xMidYMid meet">

<g transform="translate(0.000000,271.000000) scale(0.100000,-0.100000)"
fill="#000000" stroke="none">
<path d="M1009 2445 c-99 -21 -189 -79 -297 -194 -62 -65 -96 -120 -123 -199
-27 -79 -63 -336 -54 -392 4 -25 10 -72 14 -105 5 -33 9 -55 9 -48 1 6 11 9
21 6 18 -4 19 2 20 74 1 135 15 238 31 228 6 -3 10 -1 10 4 0 6 -4 11 -9 11
-15 0 17 57 36 64 9 4 13 9 10 13 -4 3 5 14 18 25 17 13 25 29 25 50 0 20 8
37 25 50 33 25 32 38 -3 38 -22 0 -31 7 -41 33 -13 29 -14 30 -18 10 -3 -14
-12 -23 -23 -23 -18 0 -18 2 -2 42 9 23 34 59 55 80 37 37 119 98 131 98 14 0
5 -30 -11 -39 -10 -6 -15 -11 -10 -11 4 0 16 6 27 12 16 10 22 10 32 0 11 -11
10 -13 -1 -10 -7 2 -16 -3 -18 -9 -3 -9 10 -13 46 -13 28 0 51 5 51 10 0 6 8
10 17 10 9 0 25 8 35 17 16 14 22 15 39 5 17 -11 34 -10 92 2 117 24 136 26
143 15 4 -7 21 -9 40 -6 41 7 62 -8 136 -100 65 -80 84 -132 97 -268 6 -55 17
-136 25 -180 9 -44 15 -110 16 -147 0 -54 3 -68 15 -68 23 0 30 28 16 67 -14
38 -6 117 9 93 20 -32 1 177 -23 265 -57 204 -125 309 -270 419 -93 71 -218
97 -338 71z m-34 -165 c3 -5 1 -10 -4 -10 -6 0 -11 5 -11 10 0 6 2 10 4 10 3
0 8 -4 11 -10z"/>
<path d="M923 1879 c-6 -6 -58 -13 -116 -16 l-106 -6 -32 -40 c-28 -35 -32
-47 -31 -93 1 -35 -3 -56 -13 -64 -16 -13 -21 -45 -6 -36 5 3 11 -13 14 -37 4
-27 2 -44 -6 -49 -11 -7 -2 -12 16 -9 9 1 9 -45 1 -87 -6 -29 -30 -50 -43 -36
-3 4 0 9 7 11 14 5 16 51 3 71 -9 15 -24 1 -35 -34 -10 -32 22 -104 45 -104
11 0 19 7 20 18 1 34 26 -66 33 -133 4 -37 14 -84 22 -104 31 -71 44 -127 44
-188 0 -40 -4 -63 -12 -66 -10 -4 -10 -6 0 -6 17 -1 16 -95 -1 -110 -8 -6 -17
-8 -20 -4 -4 3 -7 -1 -7 -10 0 -9 -6 -20 -12 -24 -13 -8 -18 -40 -18 -122 0
-56 -8 -48 -25 26 -19 83 -10 121 48 195 23 31 26 39 13 44 -13 5 -321 -147
-506 -250 -36 -20 -95 -52 -132 -71 l-68 -35 0 -255 0 -255 1020 0 1020 0 0
339 0 338 -107 43 c-60 23 -147 62 -195 86 -72 36 -209 84 -240 84 -17 0 -6
-21 32 -64 69 -81 75 -143 29 -315 -31 -118 -37 -129 -106 -181 -53 -40 -173
-88 -173 -69 0 5 -7 9 -15 9 -18 0 -18 8 0 40 8 14 14 40 15 57 0 22 7 37 20
45 35 22 25 41 -18 33 -29 -5 -42 -2 -52 9 -7 9 -21 16 -31 16 -15 0 -17 4 -9
24 6 18 4 28 -9 42 -39 43 -47 94 -15 94 14 0 18 11 15 43 -2 10 8 21 23 27
51 19 184 179 219 262 13 32 14 38 1 49 -11 9 -14 7 -14 -12 0 -16 -22 -48
-62 -91 -80 -85 -100 -89 -163 -35 -47 40 -75 52 -75 32 0 -19 -8 -19 -26 0
-18 17 -60 20 -69 5 -11 -17 -59 -7 -85 18 -13 12 -19 22 -13 22 6 0 13 9 16
20 7 26 37 26 72 -1 17 -14 29 -18 33 -12 4 6 41 21 82 34 81 24 85 27 100 79
10 34 -2 56 -23 43 -5 -3 -7 3 -5 13 2 11 20 24 43 33 22 8 44 20 48 25 6 8
10 7 14 -1 2 -7 11 -13 19 -13 13 0 19 -34 15 -81 -1 -10 12 -20 35 -27 45
-14 56 -8 54 26 -1 15 -1 32 0 37 3 11 3 11 14 70 4 22 11 50 16 63 6 14 6 22
-1 22 -5 0 -19 19 -29 43 -37 80 -117 165 -162 169 -20 3 -23 -1 -20 -25 3
-25 1 -27 -23 -21 -17 4 -32 1 -43 -9 -16 -15 -19 -14 -31 14 -7 16 -16 27
-19 25 -4 -2 -22 2 -41 10 -26 11 -31 18 -25 31 4 10 9 54 10 98 2 44 3 87 3
96 1 17 57 47 67 36 3 -3 10 -24 15 -48 11 -48 48 -87 115 -119 39 -19 54 -21
112 -15 l67 7 -28 24 c-33 28 -33 30 -1 37 19 3 32 -2 47 -19 22 -25 42 -31
52 -14 3 5 7 48 8 95 l2 86 -44 30 c-24 16 -54 30 -65 30 -80 4 -148 8 -263
12 -72 3 -140 10 -150 15 -10 5 -24 7 -30 5 -7 -3 -13 0 -13 6 0 14 -23 14
-37 0z m-13 -334 c0 -3 -8 -14 -17 -24 -10 -10 -28 -31 -40 -46 -29 -34 -74
-32 -83 4 -6 26 -35 42 -60 33 -13 -5 -13 -3 -2 11 8 9 32 18 55 20 70 6 147
7 147 2z m360 -197 c0 -5 -8 -4 -19 1 -10 6 -21 7 -25 4 -3 -3 -6 0 -6 9 0 8
3 18 7 21 7 8 43 -21 43 -35z m20 -39 c0 -5 -9 -9 -20 -9 -19 0 -26 11 -14 23
8 8 34 -3 34 -14z m-60 -34 c7 -8 22 -15 34 -16 11 0 16 -3 9 -5 -6 -3 -31 0
-54 6 -31 9 -39 14 -28 21 19 12 25 11 39 -6z m-110 -25 c0 -5 -2 -10 -4 -10
-3 0 -8 5 -11 10 -3 6 -1 10 4 10 6 0 11 -4 11 -10z m75 -70 c3 -6 -4 -10 -17
-10 -18 0 -20 2 -8 10 19 12 18 12 25 0z m-478 -462 c-3 -8 -6 -5 -6 6 -1 11
2 17 5 13 3 -3 4 -12 1 -19z m-37 -184 c0 -8 -4 -12 -10 -9 -5 3 -10 10 -10
16 0 5 5 9 10 9 6 0 10 -7 10 -16z m195 -234 c3 -6 -1 -7 -9 -4 -18 7 -21 14
-7 14 6 0 13 -4 16 -10z"/>
<path d="M1570 1360 c0 -5 5 -10 10 -10 6 0 10 5 10 10 0 6 -4 10 -10 10 -5 0
-10 -4 -10 -10z"/>
<path d="M1446 1322 c-3 -6 -1 -14 5 -17 15 -10 25 3 12 16 -7 7 -13 7 -17 1z"/>
</g>
</svg>
